<svg width="0" height="0" class="hidden">
  <symbol xmlns="http://www.w3.org/2000/svg" viewBox="0 0 512 512" id="arrow-back">
    <path fill="none" stroke="currentColor" stroke-linecap="round" stroke-linejoin="round" stroke-width="48" d="M328 112L184 256l144 144"></path>
  </symbol>
  <symbol xmlns="http://www.w3.org/2000/svg" viewBox="0 0 512 512" id="arrow-down">
    <path fill="none" stroke="currentColor" stroke-linecap="round" stroke-linejoin="round" stroke-width="48" d="M112 184l144 144 144-144"></path>
  </symbol>
  <symbol xmlns="http://www.w3.org/2000/svg" viewBox="0 0 512 512" id="arrow-forward">
    <path fill="none" stroke="currentColor" stroke-linecap="round" stroke-linejoin="round" stroke-width="48" d="M184 112l144 144-144 144"></path>
  </symbol>
  <symbol xmlns="http://www.w3.org/2000/svg" viewBox="0 0 512 512" id="ellipsis">
    <circle cx="256" cy="256" r="48"></circle>
    <circle cx="416" cy="256" r="48"></circle>
    <circle cx="96" cy="256" r="48"></circle>
  </symbol>
  <symbol xmlns="http://www.w3.org/2000/svg" fill="none" stroke="currentColor" stroke-width="2" stroke-linecap="round" stroke-linejoin="round" viewBox="0 0 24 24" id="loader">
    <line x1="12" y1="2" x2="12" y2="6"></line>
    <line x1="12" y1="18" x2="12" y2="22"></line>
    <line x1="4.93" y1="4.93" x2="7.76" y2="7.76"></line>
    <line x1="16.24" y1="16.24" x2="19.07" y2="19.07"></line>
    <line x1="2" y1="12" x2="6" y2="12"></line>
    <line x1="18" y1="12" x2="22" y2="12"></line>
    <line x1="4.93" y1="19.07" x2="7.76" y2="16.24"></line>
    <line x1="16.24" y1="7.76" x2="19.07" y2="4.93"></line>
  </symbol>
  <symbol role="img" xmlns="http://www.w3.org/2000/svg" viewBox="0 0 24 24" id="cloudflare">
    <title>Cloudflare</title>
    <path d="M16.5088 16.8447c.1475-.5068.0908-.9707-.1553-1.3154-.2246-.3164-.6045-.499-1.0615-.5205l-8.6592-.1123a.1559.1559 0 0 1-.1333-.0713c-.0283-.042-.0351-.0986-.021-.1553.0278-.084.1123-.1484.2036-.1562l8.7359-.1123c1.0351-.0489 2.1601-.8868 2.5537-1.9136l.499-1.3013c.0215-.0561.0293-.1128.0147-.168-.5625-2.5463-2.835-4.4453-5.5499-4.4453-2.5039 0-4.6284 1.6177-5.3876 3.8614-.4927-.3658-1.1187-.5625-1.794-.499-1.2026.119-2.1665 1.083-2.2861 2.2856-.0283.31-.0069.6128.0635.894C1.5683 13.171 0 14.7754 0 16.752c0 .1748.0142.3515.0352.5273.0141.083.0844.1475.1689.1475h15.9814c.0909 0 .1758-.0645.2032-.1553l.12-.4268zm2.7568-5.5634c-.0771 0-.1611 0-.2383.0112-.0566 0-.1054.0415-.127.0976l-.3378 1.1744c-.1475.5068-.0918.9707.1543 1.3164.2256.3164.6055.498 1.0625.5195l1.8437.1133c.0557 0 .1055.0263.1329.0703.0283.043.0351.1074.0214.1562-.0283.084-.1132.1485-.204.1553l-1.921.1123c-1.041.0488-2.1582.8867-2.5527 1.914l-.1406.3585c-.0283.0713.0215.1416.0986.1416h6.5977c.0771 0 .1474-.0489.169-.126.1122-.4082.1757-.837.1757-1.2803 0-2.6025-2.125-4.727-4.7344-4.727"></path>
  </symbol>
  <symbol xmlns="http://www.w3.org/2000/svg" fill="none" stroke="currentColor" stroke-width="2" stroke-linecap="round" stroke-linejoin="round" viewBox="0 0 24 24" id="alert-tri">
    <path d="M10.29 3.86L1.82 18a2 2 0 0 0 1.71 3h16.94a2 2 0 0 0 1.71-3L13.71 3.86a2 2 0 0 0-3.42 0z"></path>
    <line x1="12" y1="9" x2="12" y2="13"></line>
    <line x1="12" y1="17" x2="12.01" y2="17"></line>
  </symbol>
  <symbol xmlns="http://www.w3.org/2000/svg" viewBox="0 0 512 512" id="docker">
    <path d="M507 211.16c-1.42-1.19-14.25-10.94-41.79-10.94a132.6 132.6 0 0 0-21.61 1.9c-5.22-36.4-35.38-54-36.57-55l-7.36-4.28-4.75 6.9a101.7 101.7 0 0 0-13.06 30.45c-5 20.7-1.9 40.2 8.55 56.85-12.59 7.14-33 8.8-37.28 9H15.94A15.93 15.93 0 0 0 0 262.07a241.3 241.3 0 0 0 14.75 86.83C26.39 379.35 43.72 402 66 415.74 91.22 431.2 132.3 440 178.6 440a344 344 0 0 0 62.45-5.71 257.4 257.4 0 0 0 81.69-29.73 223.6 223.6 0 0 0 55.57-45.67c26.83-30.21 42.74-64 54.38-94h4.75c29.21 0 47.26-11.66 57.23-21.65a63.3 63.3 0 0 0 15.2-22.36l2.14-6.18z"></path>
    <path d="M47.29 236.37H92.4a4 4 0 0 0 4-4v-40.48a4 4 0 0 0-4-4H47.29a4 4 0 0 0-4 4v40.44a4.16 4.16 0 0 0 4 4m62.21.04h45.12a4 4 0 0 0 4-4v-40.48a4 4 0 0 0-4-4H109.5a4 4 0 0 0-4 4v40.44a4.16 4.16 0 0 0 4 4m63.4.04H218a4 4 0 0 0 4-4v-40.48a4 4 0 0 0-4-4h-45.1a4 4 0 0 0-4 4v40.44a3.87 3.87 0 0 0 4 4m62.46.04h45.12a4 4 0 0 0 4-4v-40.48a4 4 0 0 0-4-4h-45.12a4 4 0 0 0-4 4v40.44a4 4 0 0 0 4 4M109.5 178.57h45.12a4.16 4.16 0 0 0 4-4v-40.48a4 4 0 0 0-4-4H109.5a4 4 0 0 0-4 4v40.44a4.34 4.34 0 0 0 4 4m63.4.04H218a4.16 4.16 0 0 0 4-4v-40.48a4 4 0 0 0-4-4h-45.1a4 4 0 0 0-4 4v40.44a4 4 0 0 0 4 4m62.46.04h45.12a4.16 4.16 0 0 0 4-4v-40.48a4.16 4.16 0 0 0-4-4h-45.12a4 4 0 0 0-4 4v40.44a4.16 4.16 0 0 0 4 4m0-58h45.12a4 4 0 0 0 4-4V76a4.16 4.16 0 0 0-4-4h-45.12a4 4 0 0 0-4 4v40.44a4.17 4.17 0 0 0 4 4m62.92 115.93h45.12a4 4 0 0 0 4-4v-40.48a4 4 0 0 0-4-4h-45.12a4 4 0 0 0-4 4v40.44a4.16 4.16 0 0 0 4 4"></path>
  </symbol>
  <symbol xmlns="http://www.w3.org/2000/svg" fill="none" stroke="currentColor" stroke-width="2" stroke-linecap="round" stroke-linejoin="round" viewBox="0 0 24 24" id="close">
    <line x1="18" y1="6" x2="6" y2="18"></line>
    <line x1="6" y1="6" x2="18" y2="18"></line>
  </symbol>
  <symbol xmlns="http://www.w3.org/2000/svg" fill="none" stroke="currentColor" stroke-width="2" stroke-linecap="round" stroke-linejoin="round" viewBox="0 0 24 24" id="github">
    <path d="M9 19c-5 1.5-5-2.5-7-3m14 6v-3.87a3.37 3.37 0 0 0-.94-2.61c3.14-.35 6.44-1.54 6.44-7A5.44 5.44 0 0 0 20 4.77 5.07 5.07 0 0 0 19.91 1S18.73.65 16 2.48a13.38 13.38 0 0 0-7 0C6.27.65 5.09 1 5.09 1A5.07 5.07 0 0 0 5 4.77a5.44 5.44 0 0 0-1.5 3.78c0 5.42 3.3 6.61 6.44 7A3.37 3.37 0 0 0 9 18.13V22"></path>
  </symbol>
  <symbol xmlns="http://www.w3.org/2000/svg" viewBox="0 0 16 16" id="go">
    <path d="M4.129 5.548a2.58 2.58 0 1 0 2.463 3.355H4.645a.774.774 0 0 1 0-1.548h3.17A4.13 4.13 0 0 1 16 8.129a4.13 4.13 0 0 1-8 1.44 4.13 4.13 0 0 1-8-1.44 4.129 4.129 0 0 1 6.353-3.48.774.774 0 1 1-.835 1.305 2.57 2.57 0 0 0-1.389-.406m7.742 0a2.58 2.58 0 1 0 0 5.162 2.58 2.58 0 0 0 0-5.162"></path>
  </symbol>
  <symbol xmlns="http://www.w3.org/2000/svg" viewBox="0 0 512 512" id="laravel">
    <path d="M505.57 234.62c-3.28-3.53-26.82-32.29-39.51-47.79-6.75-8.24-12.08-14.75-14.32-17.45l-.18-.22-.2-.21c-5.22-5.83-12.64-12.51-23.78-12.51a39.78 39.78 0 00-5.41.44c-.37.05-.75.11-1.15.15-2.45.27-10.06 1.5-28.14 4.48-14 2.29-35.11 5.77-38.31 6.07l-.71.06-.69.13c-10 1.78-16.62 6.22-19.56 13.19-1.55 3.68-3.22 11.15 2.94 19.86 1.53 2.22 6.83 9.56 15.94 22.17 6.06 8.4 12.87 17.82 18.75 26L259.9 275 150.66 96.05l-.2-.34-.23-.33-.44-.65C145.32 88.17 139.76 80 123.7 80c-1.13 0-2.31 0-3.63.11-4.6.25-21.42 1.57-40.89 3.11-21.49 1.69-50.9 4-54.72 4.1h-.73l-.79.08c-9.14.89-15.77 4.6-19.7 11-6.55 10.69-1.42 22.69.26 26.63C6.87 133 37.56 197.7 64.63 254.81c18 37.94 36.58 77.17 38.1 80.65a34.85 34.85 0 0032.94 21.59 46.62 46.62 0 009.86-1.1h.21l.2-.05c13.86-3.38 57.83-14.54 89.2-22.59 1.9 3.32 3.9 6.83 6 10.44 21.93 38.5 37.9 66.35 43.16 73.46C287 421 295 432 310.06 432c5.46 0 10.46-1.4 15.74-2.89l1.53-.43h.12c10.53-3 150.69-52.16 157.87-55.35l.22-.1c5.44-2.41 13.66-6.05 16.18-15.4 1.65-6.12.18-12.33-4.38-18.46l-.07-.09-.07-.09c-.85-1.1-4-5.21-8.27-10.9-9.13-12.07-23.88-31.57-36.84-48.54 17.37-4.5 38.8-10.11 43.38-11.55 11.47-3.43 14.94-10.69 16-14.73.79-3.15 1.82-11.2-5.9-18.85zm-320 58.19c-17.81 4.17-30.22 7.08-37.89 8.9-6.67-13.34-19.74-39.65-32.5-65.33-29.74-59.92-45.1-90.77-53.18-106.9l8.15-.7c13.34-1.15 31.61-2.72 41.78-3.57 16.76 28.26 74.32 125.3 96.3 162.3zM427.58 172zM310.06 416.4zm53.67-56.95c-24.21 8-37.33 12.37-44.42 14.74-6.3-10.34-20.16-33.52-32.47-54.19l115.7-29.48c5 6.81 14.57 19.72 33.46 44.93-18.07 6.04-48.2 16.02-72.27 24zm55.87-121.63l-23.76-31.53c13.67-2.39 21.54-3.77 26.15-4.6l12 14.88 11.94 14.82c-8.2 1.99-17.74 4.32-26.33 6.43z"></path>
  </symbol>
  <symbol xmlns="http://www.w3.org/2000/svg" fill="none" stroke="currentColor" stroke-width="2" stroke-linecap="round" stroke-linejoin="round" viewBox="0 0 24 24" id="globe">
    <circle cx="12" cy="12" r="10"></circle>
    <line x1="2" y1="12" x2="22" y2="12"></line>
    <path d="M12 2a15.3 15.3 0 0 1 4 10 15.3 15.3 0 0 1-4 10 15.3 15.3 0 0 1-4-10 15.3 15.3 0 0 1 4-10z"></path>
  </symbol>
  <symbol xmlns="http://www.w3.org/2000/svg" fill="none" stroke="currentColor" stroke-width="2" stroke-linecap="round" stroke-linejoin="round" viewBox="0 0 24 24" id="heart">
    <path d="M20.84 4.61a5.5 5.5 0 0 0-7.78 0L12 5.67l-1.06-1.06a5.5 5.5 0 0 0-7.78 7.78l1.06 1.06L12 21.23l7.78-7.78 1.06-1.06a5.5 5.5 0 0 0 0-7.78z"></path>
  </symbol>
  <symbol xmlns="http://www.w3.org/2000/svg" fill="none" stroke="currentColor" stroke-width="2" stroke-linecap="round" stroke-linejoin="round" viewBox="0 0 24 24" id="linkedin">
    <path d="M16 8a6 6 0 0 1 6 6v7h-4v-7a2 2 0 0 0-2-2 2 2 0 0 0-2 2v7h-4v-7a6 6 0 0 1 6-6z"></path>
    <rect x="2" y="9" width="4" height="12"></rect>
    <circle cx="4" cy="4" r="2"></circle>
  </symbol>
  <symbol xmlns="http://www.w3.org/2000/svg" fill="none" stroke="currentColor" stroke-width="2" stroke-linecap="round" stroke-linejoin="round" viewBox="0 0 24 24" id="mail">
    <path d="M4 4h16c1.1 0 2 .9 2 2v12c0 1.1-.9 2-2 2H4c-1.1 0-2-.9-2-2V6c0-1.1.9-2 2-2z"></path>
    <polyline points="22,6 12,13 2,6"></polyline>
  </symbol>
  <symbol xmlns="http://www.w3.org/2000/svg" viewBox="0 0 512 512" id="nodejs">
    <path d="M429.76 130.07 274.33 36.85a37 37 0 0 0-36.65 0L82.24 130.06A38.2 38.2 0 0 0 64 162.83V349a38.26 38.26 0 0 0 18.24 32.8L123 406.14l.23.13c20.58 10.53 28.46 10.53 37.59 10.53 32.14 0 52.11-20.8 52.11-54.29V182a8.51 8.51 0 0 0-8.42-8.58h-22.38a8.51 8.51 0 0 0-8.42 8.58v180.51a15 15 0 0 1-6.85 13.07c-5.9 3.6-14.47 2.84-24.14-2.15l-39.06-23.51a1.1 1.1 0 0 1-.48-.92V165.46a1.32 1.32 0 0 1 .59-1.06l151.84-93a.82.82 0 0 1 .73 0l151.93 93a1.34 1.34 0 0 1 .55 1.1V349a1.28 1.28 0 0 1-.45 1l-152.06 90.65a1.22 1.22 0 0 1-.8 0l-38.83-23.06a7.8 7.8 0 0 0-7.83-.41l-.34.2c-10.72 6.35-13.6 8-23.54 11.62-1.62.59-5.43 2-5.76 5.77s3.29 6.45 6.51 8.32l51.9 31.87a35.67 35.67 0 0 0 18.3 5.07h.58a35.87 35.87 0 0 0 17.83-5.07l155.43-93.13A38.37 38.37 0 0 0 448 349V162.83a38.21 38.21 0 0 0-18.24-32.76"></path>
    <path d="M307.88 318.05c-37.29 0-45.24-10.42-47.6-27.24a8.43 8.43 0 0 0-8.22-7.32h-19.8a8.44 8.44 0 0 0-8.26 8.58c0 14.58 5.12 62.17 83.92 62.17 24.38 0 44.66-5.7 58.63-16.49S388 311.26 388 292.55c0-37.55-24.5-47.83-72.75-54.55-49.05-6.82-49.05-10.29-49.05-17.89 0-5.47 0-18.28 35.46-18.28 25.23 0 38.74 3.19 43.06 20a8.35 8.35 0 0 0 8.06 6.67h19.87a8.24 8.24 0 0 0 6.16-2.86 8.9 8.9 0 0 0 2.12-6.44c-2.57-35.55-28.56-53.58-79.24-53.58-46.06 0-73.55 20.75-73.55 55.5 0 38.1 28.49 48.87 71.29 53.33 50 5.17 50 12.71 50 19.37.03 10.38-4.28 24.23-41.55 24.23"></path>
  </symbol>
  <symbol xmlns="http://www.w3.org/2000/svg" viewBox="0 0 32 32" id="mongodb">
    <path d="M15.821 23.185s0-10.361.344-10.36c.266 0 .612 13.365.612 13.365-.476-.056-.956-2.199-.956-3.005m6.668-10.24c-.919-4.016-2.932-7.469-5.708-10.134l-.007-.006a10 10 0 0 1-.895-1.732l-.024-.068.001.068c0 .565-.253 1.07-.652 1.409l-.003.002c-3.574 3.034-5.848 7.505-5.923 12.508v.013l-.001.208a15.1 15.1 0 0 0 6.07 12.115l.039.028.087.063q.241 1.784.412 3.576h.601c.166-1.491.39-2.796.683-4.076l-.046.239c.396-.275.742-.56 1.065-.869l-.003.003a14.14 14.14 0 0 0 4.549-10.404l-.001-.182v.009a16.3 16.3 0 0 0-.261-2.871l.015.099z"></path>
  </symbol>
  <symbol xmlns="http://www.w3.org/2000/svg" viewBox="0 0 512 512" id="react">
    <path d="M410.66 180.72q-7.67-2.62-15.45-4.88 1.29-5.25 2.38-10.56c11.7-56.9 4.05-102.74-22.06-117.83-25-14.48-66 .61-107.36 36.69q-6.1 5.34-11.95 11-3.9-3.76-8-7.36c-43.35-38.58-86.8-54.83-112.88-39.69-25 14.51-32.43 57.6-21.9 111.53q1.58 8 3.55 15.93a321 321 0 0 0-17.77 5.6C48.46 198.9 16 226.73 16 255.59c0 29.82 34.84 59.72 87.77 77.85q6.44 2.19 13 4.07-2.13 8.49-3.77 17.17c-10 53-2.2 95.07 22.75 109.49 25.77 14.89 69-.41 111.14-37.31q5-4.38 10-9.25 6.32 6.11 13 11.86c40.8 35.18 81.09 49.39 106 34.93 25.75-14.94 34.12-60.14 23.25-115.13q-1.25-6.3-2.88-12.86 4.56-1.35 8.93-2.79c55-18.27 90.83-47.81 90.83-78-.02-29-33.52-57.01-85.36-74.9m-129-81.08c35.43-30.91 68.55-43.11 83.65-34.39 16.07 9.29 22.32 46.75 12.22 95.88q-1 4.8-2.16 9.57a488 488 0 0 0-64.18-10.16 481 481 0 0 0-40.57-50.75q5.38-5.22 11.02-10.15zM157.73 280.25q6.51 12.6 13.61 24.89 7.23 12.54 15.07 24.71a435 435 0 0 1-44.24-7.13c4.24-13.72 9.46-27.97 15.56-42.47m0-48.33c-6-14.19-11.08-28.15-15.25-41.63 13.7-3.07 28.3-5.58 43.52-7.48q-7.65 11.94-14.72 24.23t-13.58 24.88zm10.9 24.17q9.48-19.77 20.42-38.78 10.93-19 23.27-37.13c14.28-1.08 28.92-1.65 43.71-1.65s29.52.57 43.79 1.66q12.21 18.09 23.13 37t20.69 38.6Q334 275.63 323 294.73q-10.91 19-23 37.24c-14.25 1-29 1.55-44 1.55s-29.47-.47-43.46-1.38q-12.43-18.19-23.46-37.29t-20.48-38.76zM340.75 305q7.25-12.58 13.92-25.49a440 440 0 0 1 16.12 42.32 434 434 0 0 1-44.79 7.65q7.62-12.09 14.75-24.48m13.72-73.07q-6.64-12.65-13.81-25-7-12.18-14.59-24.06c15.31 1.94 30 4.52 43.77 7.67a440 440 0 0 1-15.37 41.39m-98.24-107.45a440 440 0 0 1 28.25 34.18q-28.35-1.35-56.74 0c9.33-12.34 18.88-23.79 28.49-34.18M145.66 65.86c16.06-9.32 51.57 4 89 37.27 2.39 2.13 4.8 4.36 7.2 6.67A491 491 0 0 0 201 160.51a499 499 0 0 0-64.06 10q-1.83-7.36-3.3-14.82c-9.05-46.23-3.06-81.08 12.02-89.83m-23.41 251.85q-6-1.71-11.85-3.71c-23.4-8-42.73-18.44-56-29.81-11.88-10.19-17.9-20.36-17.9-28.6 0-17.51 26.06-39.85 69.52-55q8.19-2.85 16.52-5.21a493.5 493.5 0 0 0 23.4 60.75 502.5 502.5 0 0 0-23.69 61.58m111.13 93.67c-18.63 16.32-37.29 27.89-53.74 33.72-14.78 5.23-26.55 5.38-33.66 1.27-15.14-8.75-21.44-42.54-12.85-87.86q1.53-8 3.5-16a481 481 0 0 0 64.69 9.39 501 501 0 0 0 41.2 51c-2.98 2.93-6.03 5.75-9.14 8.48m23.42-23.22c-9.72-10.51-19.42-22.14-28.88-34.64q13.79.54 28.08.54c9.78 0 19.46-.21 29-.64a439 439 0 0 1-28.2 34.74m124.52 28.59c-2.86 15.44-8.61 25.74-15.72 29.86-15.13 8.78-47.48-2.63-82.36-32.72-4-3.44-8-7.13-12.07-11a484.5 484.5 0 0 0 40.23-51.2 478 478 0 0 0 65-10.05q1.47 5.94 2.6 11.64c4.81 24.3 5.5 46.28 2.32 63.47m17.4-102.64c-2.62.87-5.32 1.71-8.06 2.53a483 483 0 0 0-24.31-60.94 481.5 481.5 0 0 0 23.36-60.06c4.91 1.43 9.68 2.93 14.27 4.52 44.42 15.32 71.52 38 71.52 55.43 0 18.6-29.27 42.74-76.78 58.52"></path>
    <path d="M256 298.55a43 43 0 1 0-42.86-43 42.91 42.91 0 0 0 42.86 43"></path>
  </symbol>
  <symbol xmlns="http://www.w3.org/2000/svg" viewBox="0 0 24 24" id="typescript">
    <path d="M0 12v12h24V0H0zm19.341-.956c.61.152 1.074.423 1.501.865.221.236.549.666.575.77.008.03-1.036.73-1.668 1.123-.023.015-.115-.084-.217-.236-.31-.45-.633-.644-1.128-.678-.728-.05-1.196.331-1.192.967a.9.9 0 0 0 .102.45c.16.331.458.53 1.39.933 1.719.74 2.454 1.227 2.911 1.92.51.773.625 2.008.278 2.926-.38.998-1.325 1.676-2.655 1.9-.411.073-1.386.062-1.828-.018-.964-.172-1.878-.648-2.442-1.273-.221-.243-.652-.88-.625-.925a1.6 1.6 0 0 1 .22-.141c.108-.061.511-.294.892-.515l.69-.4.145.214c.202.308.643.731.91.872.766.404 1.817.347 2.335-.118a.88.88 0 0 0 .313-.72c0-.278-.035-.4-.18-.61-.186-.266-.567-.49-1.649-.96-1.238-.533-1.771-.864-2.259-1.39a3.2 3.2 0 0 1-.659-1.2c-.091-.339-.114-1.189-.042-1.531.255-1.197 1.158-2.03 2.461-2.278.423-.08 1.406-.05 1.821.053m-5.634 1.002.008.983H10.59v8.876H8.38v-8.876H5.258v-.964c0-.534.011-.98.026-.99.012-.016 1.913-.024 4.217-.02l4.195.012z"></path>
  </symbol>
  <symbol xmlns="http://www.w3.org/2000/svg" viewBox="0 0 512 512" id="menu">
    <path fill="none" stroke="currentColor" stroke-linecap="round" stroke-miterlimit="10" stroke-width="32" d="M80 160h352M80 256h352M80 352h352"></path>
  </symbol>
  <symbol xmlns="http://www.w3.org/2000/svg" viewBox="0 0 24 24" id="tailwind">
    <path d="M22.105 7.553c-.224.448-.523.723-.914.838-.614.183-1.343-.052-1.685-.253-.451-.265-.974-.667-1.527-1.092C16.214 5.688 14.018 4 11 4 8.586 4 7.346 5.239 5.293 7.293L6.7 8.714c.546-.425 4.031-.015 5.552 1.194C14.511 11.703 16.142 13 18 13c2.659 0 4.879-1.741 5.94-4.658L22.105 7.553zM16.192 15.391c-.613.18-1.343-.052-1.685-.253-.451-.265-.974-.667-1.527-1.092C11.214 12.688 9.018 11 6 11c-2.414 0-3.654 1.239-5.707 3.293L1.7 15.714c.545-.427 4.032-.014 5.552 1.194C9.511 18.703 11.142 20 13 20c2.659 0 4.879-1.741 5.94-4.658l-1.834-.789C16.881 15.001 16.583 15.275 16.192 15.391z"></path>
  </symbol>
  <symbol xmlns="http://www.w3.org/2000/svg" viewBox="0 0 512 512" id="refresh">
    <path d="M320 146s24.36-12-64-12a160 160 0 10160 160" fill="none" stroke="currentColor" stroke-linecap="round" stroke-miterlimit="10" stroke-width="32"></path>
    <path fill="none" stroke="currentColor" stroke-linecap="round" stroke-linejoin="round" stroke-width="32" d="M256 58l80 80-80 80"></path>
  </symbol>
  <symbol xmlns="http://www.w3.org/2000/svg" viewBox="0 0 24 24" id="smile">
    <path d="M14.935 13.173c.43.172.647.667.389 1.053a4 4 0 0 1-6.751-.163c-.24-.397 0-.882.44-1.033.438-.151.906.097 1.203.454a2.32 2.32 0 0 0 3.495.084c.313-.342.793-.567 1.224-.396M10 9a1 1 0 0 0-2 0v1a1 1 0 1 0 2 0zm6 0a1 1 0 1 0-2 0v1a1 1 0 1 0 2 0z"></path>
    <path fill-rule="evenodd" d="M2 12C2 6.477 6.477 2 12 2s10 4.477 10 10-4.477 10-10 10S2 17.523 2 12m10-8a8 8 0 1 0 0 16 8 8 0 0 0 0-16" clip-rule="evenodd"></path>
  </symbol>
  <symbol xmlns="http://www.w3.org/2000/svg" viewBox="0 0 512 512" id="vue">
    <path d="M256 144.03l-55.49-96.11h-79.43L256 281.61 390.92 47.92h-79.43L256 144.03z"></path>
    <path d="M409.4 47.92L256 313.61 102.6 47.92H15.74L256 464.08 496.26 47.92H409.4z"></path>
  </symbol>
</svg>